<?xml version="1.0" encoding="UTF-8" standalone="no"?>
<!-- Created with Inkscape (http://www.inkscape.org/) -->

<svg
   xmlns:dc="http://purl.org/dc/elements/1.1/"
   xmlns:cc="http://creativecommons.org/ns#"
   xmlns:rdf="http://www.w3.org/1999/02/22-rdf-syntax-ns#"
   xmlns:svg="http://www.w3.org/2000/svg"
   xmlns="http://www.w3.org/2000/svg"
   xmlns:xlink="http://www.w3.org/1999/xlink"
   xmlns:sodipodi="http://sodipodi.sourceforge.net/DTD/sodipodi-0.dtd"
   xmlns:inkscape="http://www.inkscape.org/namespaces/inkscape"
   id="svg2876"
   version="1.1"
   inkscape:version="0.47pre4 r22446"
   width="1900"
   height="1014"
   sodipodi:docname="flipped.svg"
   inkscape:export-filename="/home/james/writings/thatcher-w/flipped.png"
   inkscape:export-xdpi="37.899406"
   inkscape:export-ydpi="37.899406">
  <metadata
     id="metadata2882">
    <rdf:RDF>
      <cc:Work
         rdf:about="">
        <dc:format>image/svg+xml</dc:format>
        <dc:type
           rdf:resource="http://purl.org/dc/dcmitype/StillImage" />
        <dc:title></dc:title>
      </cc:Work>
    </rdf:RDF>
  </metadata>
  <defs
     id="defs2880">
    <inkscape:perspective
       sodipodi:type="inkscape:persp3d"
       inkscape:vp_x="0 : 0.5 : 1"
       inkscape:vp_y="0 : 1000 : 0"
       inkscape:vp_z="1 : 0.5 : 1"
       inkscape:persp3d-origin="0.5 : 0.33333333 : 1"
       id="perspective2884" />
  </defs>
  <sodipodi:namedview
     pagecolor="#ffffff"
     bordercolor="#666666"
     borderopacity="1"
     objecttolerance="10"
     gridtolerance="10"
     guidetolerance="10"
     inkscape:pageopacity="0"
     inkscape:pageshadow="2"
     inkscape:window-width="1920"
     inkscape:window-height="1006"
     id="namedview2878"
     showgrid="false"
     inkscape:zoom="0.46548323"
     inkscape:cx="475.22885"
     inkscape:cy="380.66662"
     inkscape:window-x="0"
     inkscape:window-y="25"
     inkscape:window-maximized="1"
     inkscape:current-layer="svg2876" />
  <image
     xlink:href="file:///home/james/writings/thatcher-w/jayma-flipped.png"
     width="1900"
     height="1014"
     id="image2886"
     x="0"
     y="0" />
  <g
     id="g2902"
     transform="matrix(-1,0,0,-1,997.89325,1110.4722)">
    <path
       d="m 95.67777,670.85734 0.181367,-4.53417 c 2.660031,-1.33002 7.073283,-2.47867 13.239773,-3.44596 6.28734,-1.0882 10.57968,-2.11594 12.87703,-3.08324 2.41818,-1.08819 4.41322,-2.47866 5.9851,-4.17143 1.08816,-5.32007 1.63226,-14.9325 1.6323,-28.83731 l -2.53913,-141.10329 0.5441,-23.3963 c -4e-5,-4.83623 -0.90688,-8.16129 -2.7205,-9.97517 -1.6928,-1.81345 -6.22696,-3.44575 -13.6025,-4.8969 -7.3756,-1.57162 -11.728399,-2.84119 -13.058406,-3.8087 -1.330035,-0.96706 -1.995045,-1.99481 -1.995034,-3.08323 -1.1e-5,-0.60433 0.181355,-1.39025 0.5441,-2.35777 1.571831,-0.96706 3.20413,-1.4507 4.8969,-1.45093 1.81365,2.3e-4 5.50144,0.12114 11.06337,0.36273 l 5.07827,0 c 1.69272,2.3e-4 6.4687,-0.12068 14.32797,-0.36273 l 25.20997,0 52.05224,-0.90684 55.13547,-2.1764 4.89691,0 7.79876,-0.18137 c 2.17621,2.4e-4 4.11079,0.60479 5.80374,1.81367 0.72527,1.93481 1.14845,3.32529 1.26956,4.17144 l -0.18136,7.25466 1.6323,32.46464 c -2e-4,1.33021 -0.12111,3.02297 -0.36274,5.07827 -1.93477,0.84656 -3.68798,1.26975 -5.25963,1.26957 -1.08839,1.8e-4 -1.93477,-0.36255 -2.53913,-1.0882 -0.96748,-1.32984 -1.57204,-3.86897 -1.81367,-7.6174 -0.48383,-5.19899 -2.35796,-11.90955 -5.62237,-20.13171 -1.57203,-3.86894 -4.17161,-6.52898 -7.79877,-7.98013 -7.25483,-2.78074 -19.46685,-4.17121 -36.63607,-4.17144 -8.10118,2.3e-4 -15.65812,0.24205 -22.67084,0.72547 -7.01295,0.36296 -11.30529,0.54432 -12.87703,0.5441 l -14.1466,-0.18137 c -5.80382,2.3e-4 -10.57981,0.8466 -14.32797,2.53914 -2.53921,1.08842 -3.80878,3.688 -3.8087,7.79877 l 0,2.7205 c 0.36266,6.16667 0.54402,12.99814 0.5441,20.49443 l -0.5441,49.33174 c -8e-5,4.83658 0.36266,9.4312 1.0882,13.78387 l 5.25963,0.36274 10.15654,-0.5441 34.64104,0 c 13.90464,1.2e-4 23.57752,-0.96717 29.01867,-2.90187 3.62717,-1.32989 6.34767,-3.32492 8.1615,-5.9851 0.60439,-0.84624 2.11578,-5.62223 4.53417,-14.32797 l 2.35776,-15.05344 c 1.45077,-0.7253 2.53897,-1.08803 3.2646,-1.0882 0.60439,1.7e-4 1.57168,0.30245 2.90187,0.90684 0.48347,2.78111 0.78575,7.013 0.90683,12.69567 l 2.1764,66.74294 c -2.05566,0.84646 -3.6275,1.26965 -4.71553,1.26957 l -1.99503,-0.36274 c -1.93475,-12.09101 -4.95753,-21.58253 -9.06834,-28.47457 -1.45109,-2.41811 -3.08339,-3.80858 -4.8969,-4.17143 -3.14384,-0.72535 -17.53225,-1.08808 -43.16527,-1.0882 -7.98024,1.2e-4 -13.48169,0.0606 -16.50437,0.18136 -7.25476,0.36286 -11.60756,0.54422 -13.0584,0.5441 l -1.81367,0 c -3.62741,1.2e-4 -6.227,0.48377 -7.79877,1.45094 -0.48372,1.45105 -0.72554,2.47879 -0.72547,3.08323 l 0,12.5143 c -7e-5,1.45104 0.0604,7.49659 0.18137,18.13667 l -0.36273,60.03238 c -8e-5,1.69278 0.48357,3.80872 1.45093,6.34783 2.53906,2.05551 7.13368,3.44598 13.78387,4.17144 6.77093,0.60457 13.11876,2.17641 19.0435,4.71553 3.3854,1.57185 5.07816,3.32506 5.07827,5.25964 -1.1e-4,0.84638 -0.24193,1.6323 -0.72547,2.35776 -0.48375,0.72547 -1.33013,1.26957 -2.53913,1.6323 -9.91481,-2.05549 -23.63821,-3.08323 -41.17024,-3.08323 -9.31022,0 -19.16446,0.84638 -29.56277,2.53913 -7.13379,1.0882 -15.29528,1.6323 -24.484506,1.6323 l -3.627334,-0.90683"
       style="font-size:371.43899536px;font-style:normal;font-variant:normal;font-weight:normal;font-stretch:normal;fill:#000000;fill-opacity:1;stroke:none;font-family:Garamond;-inkscape-font-specification:Garamond"
       id="path2893" />
    <path
       d="m 298.26437,664.50951 c 4.4737,-1.93458 9.67287,-3.20414 15.59753,-3.8087 8.58467,-0.96728 14.99295,-3.02277 19.22487,-6.16647 3.26456,-6.65009 4.89686,-23.57763 4.89691,-50.78268 l 0,-28.65593 0.36273,-17.22984 -0.36273,-12.69567 0.36273,-23.3963 -0.5441,-58.94418 c -5e-5,-6.6499 -0.96733,-11.0027 -2.90187,-13.0584 -2.78099,-3.02256 -10.15656,-5.80351 -22.12674,-8.34287 -4.95737,-1.08797 -7.98014,-2.05526 -9.06833,-2.90187 -1.08821,-0.96706 -1.75322,-2.72027 -1.99503,-5.25963 2.78094,-0.60432 4.71552,-0.9066 5.80373,-0.90684 l 12.87704,0 6.71056,-0.18136 c 4.47368,2.3e-4 9.43103,0.48388 14.87207,1.45093 11.12377,0.7257 22.54986,1.08844 34.27831,1.0882 3.38542,2.4e-4 8.22186,-0.18113 14.50933,-0.5441 16.68563,-0.96705 28.65582,-1.4507 35.91061,-1.45093 14.6301,2.3e-4 28.41395,1.45117 41.35161,4.3528 13.05821,2.90209 26.47933,8.28263 40.2634,16.14163 8.58447,4.95757 17.35052,12.81679 26.29817,23.57768 9.06809,10.64036 15.89956,22.30827 20.49444,35.00377 4.71527,12.5749 7.07303,26.78194 7.0733,42.62117 -2.7e-4,14.1467 -2.59985,28.17238 -7.79877,42.07708 -5.07852,13.90483 -12.21227,25.99593 -21.40127,36.27333 -9.18947,10.15657 -18.49962,17.83441 -27.93047,23.03358 -9.43127,5.07827 -23.81968,9.49152 -43.16527,13.23976 -7.9803,1.45094 -22.30825,2.1764 -42.98391,2.1764 -13.66307,0 -24.78688,-0.42319 -33.37147,-1.26956 -3.3856,-0.48365 -7.01293,-0.72547 -10.882,-0.72547 -0.60464,0 -1.26965,0.0605 -1.99504,0.18137 l -73.99761,1.26956 -0.36273,-1.45093 c -0.24183,-0.60456 -0.36274,-1.26957 -0.36273,-1.99503 l 0.36273,-2.7205 m 92.31565,-7.0733 c 9.18914,3.14369 18.49929,4.71554 27.93047,4.71553 12.21189,10e-6 24.18208,-1.87411 35.9106,-5.62237 11.72821,-3.86914 22.0661,-9.24968 31.01371,-16.14163 9.06813,-7.01281 16.50416,-14.87203 22.3081,-23.57767 5.80352,-8.82646 9.91449,-16.74613 12.33294,-23.75904 3.38528,-10.27736 5.07804,-23.63803 5.07827,-40.08204 -2.3e-4,-15.71832 -3.32529,-31.67857 -9.97517,-47.88081 -4.59484,-11.24456 -12.69588,-22.00564 -24.30314,-32.28327 -11.48674,-10.27724 -25.08923,-17.77372 -40.80751,-22.48947 -15.71858,-4.83622 -32.70658,-7.25445 -50.96404,-7.25467 -12.57485,2.2e-4 -21.885,1.3907 -27.93047,4.17143 -0.72554,0.72569 -1.45101,1.57207 -2.1764,2.53914 -0.72554,3.02299 -1.08827,5.80394 -1.0882,8.34287 -7e-5,1.57205 0.0604,3.44617 0.18137,5.62236 0.36266,14.02588 0.54402,25.27061 0.5441,33.73421 l -0.18137,41.17024 c -7e-5,60.45563 1.08812,94.12935 3.2646,101.02125 2.29723,6.77104 8.5846,12.69568 18.86214,17.77394"
       style="font-size:371.43899536px;font-style:normal;font-variant:normal;font-weight:normal;font-stretch:normal;fill:#000000;fill-opacity:1;stroke:none;font-family:Garamond;-inkscape-font-specification:Garamond"
       id="path2895" />
    <path
       d="m 567.59391,671.40144 -0.18137,2.90187 c 1.69276,2.17617 6.46875,3.26437 14.32797,3.2646 l 16.86711,-0.18137 9.7938,-0.18136 4.3528,0.18136 c 15.8393,-2.3e-4 25.39127,-0.24205 28.65594,-0.72546 0.12084,-1.45116 0.18129,-2.53936 0.18136,-3.2646 -7e-5,-1.08843 -0.12098,-2.66027 -0.36273,-4.71554 l -17.59257,-0.72546 c -0.84643,-0.12114 -1.99508,-0.42341 -3.44597,-0.90684 -0.48369,-1.20933 -0.72551,-2.11616 -0.72546,-2.7205 -5e-5,-0.72568 0.36268,-1.87434 1.0882,-3.44597 0.96724,-2.0557 1.87407,-4.23209 2.7205,-6.5292 l 11.4261,-31.92053 27.205,-68.19388 c 3.1436,-8.34297 5.25954,-13.72351 6.34784,-16.14164 3.38541,-7.61748 7.67775,-18.25765 12.87703,-31.92054 1.81356,-4.71559 6.16636,-14.93257 13.05841,-30.65097 0.36261,-0.96732 1.08807,-2.53916 2.1764,-4.71553 5.44087,8.82648 13.42099,24.24263 23.9404,46.2485 8.2218,16.92748 13.36052,28.59539 15.41617,35.00378 l -1.45093,3.62733 -31.19508,70.73301 c -4.1111,8.82633 -7.31524,15.83917 -9.61243,21.03854 -4.71565,10.88179 -8.16162,17.10871 -10.3379,18.68077 -2.17651,1.57162 -8.5848,2.65982 -19.22487,3.2646 l -3.8087,0.90683 c -0.96738,1.08798 -1.45102,2.35754 -1.45094,3.8087 0.24174,1.08798 0.78584,1.93435 1.6323,2.53914 3.86907,0.12068 6.58956,0.18113 8.16151,0.18136 l 11.4261,-0.36273 5.80373,0.18137 9.97517,0 8.88697,0.18136 9.43107,0 17.04847,0.90684 c 1.08803,-2.3e-4 2.72033,-0.0607 4.8969,-0.18137 l 2.90186,0.18137 c 1.69259,-2.3e-4 2.96216,-0.42342 3.8087,-1.26957 0.84621,-0.7257 1.2694,-1.57207 1.26957,-2.53913 -1.7e-4,-0.84661 -0.24199,-1.8139 -0.72547,-2.90187 -1.93474,-0.72569 -5.38071,-1.33025 -10.3379,-1.81367 -7.13391,-0.8466 -11.30534,-1.63252 -12.5143,-2.35776 -1.08835,-0.72569 -1.63245,-1.69298 -1.6323,-2.90187 -1.5e-4,-2.29753 4.65493,-14.44908 13.96524,-36.45471 l 18.4994,-41.8957 c 5.68264,11.12367 13.42094,28.65577 23.21494,52.59634 4.11077,9.91451 6.16625,17.22963 6.16646,21.94537 -2.1e-4,2.53892 -1.02795,4.83622 -3.08323,6.89193 -1.57205,1.45071 -5.07847,2.418 -10.51927,2.90187 l -3.8087,0.5441 -3.2646,1.45093 -0.18137,1.45094 c -1.8e-4,0.72524 0.30209,1.75298 0.90684,3.08323 1.20892,0.96706 2.29712,1.51116 3.2646,1.6323 1.81347,0.24159 10.21679,-0.0607 25.20997,-0.90683 l 12.33293,0 7.61741,-0.18137 12.69566,0.18137 c 0.96704,-0.12114 2.41797,-0.42342 4.3528,-0.90684 0.96704,-0.96751 1.45068,-1.87435 1.45094,-2.7205 -2.6e-4,-1.33024 -0.54436,-2.41844 -1.6323,-3.2646 -0.96754,-0.8466 -3.26485,-1.57206 -6.89194,-2.1764 -9.18948,-1.57206 -16.08141,-3.99028 -20.6758,-7.25467 -3.023,-2.29752 -5.7435,-5.56212 -8.1615,-9.7938 l -13.23977,-29.3814 c -3.14389,-8.94759 -5.74348,-15.65815 -7.79877,-20.1317 -0.84657,-2.78111 -2.41842,-6.4689 -4.71553,-11.06337 l -7.43604,-17.22984 c 1.32984,-3.14381 3.56669,-8.22208 6.71057,-15.2348 l 18.68077,-43.34664 c 0.84617,-1.93465 3.32484,-7.31519 7.43604,-16.14164 4.23166,-8.82655 7.73808,-16.98805 10.51926,-24.4845 l 2.7205,8.7056 0.36274,0.90683 11.06337,28.83731 c 3.86891,8.82643 7.73806,18.13658 11.60746,27.93047 l 13.96524,35.18514 21.03854,59.85101 c 2.17611,6.89174 3.92932,13.54184 5.25963,19.95033 l 0.5441,2.90187 c 0.36244,1.32981 0.54381,2.2971 0.5441,2.90187 -2.9e-4,1.69254 -0.84667,3.20393 -2.53913,4.53417 -1.69305,1.45071 -7.67815,3.38528 -17.95531,5.80373 -0.96756,0.36251 -1.93485,0.90661 -2.90186,1.6323 -0.36301,1.45071 -0.54437,2.59936 -0.5441,3.44597 l 0.18136,1.26956 c 5.07799,0.2416 8.28214,0.36251 9.61244,0.36274 l 13.96523,-0.36274 15.77891,0.18137 13.6025,0 5.441,-0.36273 0.18137,-1.81367 c -3.3e-4,-0.84661 -0.12124,-2.11617 -0.36274,-3.8087 -8.70592,-3.38573 -14.14691,-5.80395 -16.323,-7.25467 -2.0558,-1.45115 -3.6881,-3.02299 -4.8969,-4.71553 -1.08851,-1.69297 -3.20445,-6.28759 -6.34783,-13.78387 -0.36304,-0.72567 -4.17174,-11.60766 -11.42611,-32.64601 -1.57213,-3.14385 -3.20443,-7.31528 -4.8969,-12.5143 -0.48393,-1.45109 -1.51167,-4.05067 -3.08323,-7.79877 l -2.90187,-7.25466 -1.99503,-5.25964 c -7.98041,-22.00594 -16.74646,-45.03948 -26.29817,-69.10071 l -19.58761,-54.41001 -7.79876,-20.6758 c -1.9348,-0.24181 -3.38574,-0.36273 -4.3528,-0.36274 -0.8466,1e-5 -2.05571,0.0605 -3.62734,0.18137 -1.57206,4.47372 -5.01802,12.93749 -10.3379,25.39134 -13.78406,31.67867 -26.17744,57.97681 -37.18017,78.89451 l -2.1764,-3.62733 C 732.45608,525.46163 725.02005,509.92456 716.3146,490.57885 L 702.168,461.92291 c -5.80386,-12.21203 -10.51939,-20.6758 -14.1466,-25.39134 l -7.79877,-0.18137 -29.3814,71.82122 -24.30314,56.94914 -21.40127,54.04727 c -1.45097,3.50625 -2.72053,6.8313 -3.8087,9.97517 -0.84641,2.29713 -1.63233,4.65489 -2.35777,7.0733 -1.20914,3.74806 -4.59465,12.27228 -10.15653,25.57271 -2.17642,3.5062 -5.68284,5.74306 -10.51927,6.71057 -4.83645,0.96706 -8.40333,1.93435 -10.70064,2.90186"
       style="font-size:371.43899536px;font-style:normal;font-variant:normal;font-weight:normal;font-stretch:normal;fill:#000000;fill-opacity:1;stroke:none;font-family:Garamond;-inkscape-font-specification:Garamond"
       id="path2897" />
  </g>
</svg>
